<svg width="120" height="31" viewBox="0 0 120 31" fill="none" xmlns="http://www.w3.org/2000/svg">
<path d="M42.9327 25.8937C42.1147 25.8946 41.2989 25.8084 40.4981 25.6364C39.7349 25.4796 39.0047 25.1839 38.3417 24.7631C37.7024 24.3488 37.1642 23.7877 36.7689 23.1236C36.3562 22.44 36.2071 21.3939 36.1998 21.3489C36.1558 21.0781 36.2311 20.8011 36.4052 20.5937C36.5794 20.3862 36.8341 20.2699 37.0998 20.2765H39.2817C39.8198 20.2885 40.2738 20.6936 40.3635 21.2418C40.3763 21.2719 40.4144 21.3507 40.509 21.5198C40.6531 21.7824 40.8518 22.0088 41.0908 22.1827C41.3466 22.3638 41.6317 22.4961 41.9326 22.5733C42.2684 22.6613 42.6135 22.7054 42.9599 22.7048C43.2266 22.7025 43.4922 22.6717 43.7527 22.6128C44.007 22.5574 44.252 22.4638 44.48 22.3348C44.6848 22.2182 44.8618 22.0559 44.9982 21.8597C45.1341 21.649 45.201 21.3989 45.1891 21.146C45.1891 20.9732 45.1891 20.4493 44.22 20.0718C43.4781 19.7845 41.7817 19.3675 41.7654 19.3638C41.3708 19.268 40.729 19.1065 40.3381 19.0069C40.3217 19.0069 39.929 18.9018 39.3962 18.7234C38.8696 18.5528 38.3688 18.3062 37.9089 17.9909C37.4642 17.6882 37.0912 17.2857 36.818 16.8134C36.5278 16.2798 36.3832 15.6749 36.3998 15.0631C36.3998 14.0846 36.5816 13.2658 36.9671 12.6216C37.3329 11.9992 37.8452 11.4824 38.4562 11.1192C39.0861 10.7477 39.7731 10.4904 40.4872 10.3586C41.235 10.2158 41.994 10.1442 42.7545 10.1445C43.5115 10.1432 44.2668 10.22 45.0091 10.3736C45.7154 10.5141 46.3924 10.7817 47.0091 11.1643C47.6045 11.5445 48.1097 12.0579 48.4873 12.6667C48.761 13.1558 48.9528 13.6892 49.0546 14.2443C49.1106 14.5122 49.0442 14.7919 48.8745 15.0027C48.7049 15.2135 48.4508 15.332 48.1855 15.3241H46.0036C45.4528 15.3096 44.9736 14.9306 44.8163 14.3851C44.7282 14.115 44.547 13.8877 44.3072 13.7466C43.7924 13.4857 43.2242 13.3568 42.6508 13.371C42.426 13.3718 42.2014 13.3856 41.9781 13.4123C41.7685 13.4327 41.5631 13.4859 41.369 13.57C41.2085 13.6432 41.0666 13.7538 40.9544 13.8931C40.8436 14.0442 40.7894 14.2316 40.8017 14.4208C40.7931 14.672 40.8995 14.9128 41.089 15.0706C41.3533 15.2917 41.6564 15.4581 41.9817 15.5608C42.4282 15.7132 42.8829 15.8386 43.3436 15.9364C43.8472 16.0453 44.3854 16.1674 44.9436 16.3007C45.5047 16.4318 46.0588 16.5929 46.6036 16.7834C47.1344 16.9653 47.6362 17.2273 48.0928 17.5609C48.5349 17.8862 48.9028 18.3073 49.171 18.7947C49.4618 19.3565 49.6047 19.9872 49.5855 20.6239C49.6535 22.307 48.8385 23.8974 47.4528 24.7857C46.7998 25.2072 46.0765 25.4995 45.32 25.6477C44.534 25.8104 43.7343 25.8928 42.9327 25.8937Z" fill="#1B1D1D"/>
<path d="M61.3222 25.5379C60.7659 25.5379 60.3149 25.0721 60.3149 24.4975V17.8586C60.3149 17.4473 60.2858 16.7806 60.2494 16.3731C60.2185 16.0238 60.0822 15.0209 59.8167 14.589C59.5076 14.0857 58.9567 13.8378 58.1312 13.8378C57.1676 13.8378 56.4948 14.1157 56.0803 14.6866C55.7348 15.1618 55.5457 16.4858 55.5021 16.9572C55.4639 17.3666 55.433 18.0314 55.433 18.4408V24.4881C55.433 25.0627 54.982 25.5285 54.4257 25.5285H52.062C51.5061 25.5275 51.0557 25.0623 51.0547 24.4881V6.0834C51.0557 5.50922 51.5061 5.044 52.062 5.04297H54.4257C54.982 5.04297 55.433 5.50879 55.433 6.0834V12.1212L55.4785 12.063C55.5075 12.0255 56.1803 11.1541 56.9839 10.7484C57.7076 10.3669 58.5062 10.1614 59.3185 10.1474C60.3767 10.1474 61.264 10.3014 61.9513 10.6038C62.6062 10.8751 63.1805 11.3193 63.6168 11.8921C64.0366 12.4803 64.3259 13.1568 64.4641 13.8734C64.5694 14.4458 64.6368 15.025 64.6659 15.6069C64.6841 16.0275 64.7004 16.7112 64.7004 17.1318V24.4918C64.6994 25.0668 64.2479 25.5323 63.6913 25.5323L61.3222 25.5379Z" fill="#1B1D1D"/>
<path fill-rule="evenodd" clip-rule="evenodd" d="M66.8828 7.83939C66.8828 8.414 67.3338 8.87982 67.8901 8.87982L70.2629 8.87419C70.8188 8.87315 71.2692 8.40794 71.2702 7.83376V6.08343C71.2697 5.80601 71.1622 5.54023 70.9714 5.34495C70.7806 5.14967 70.5224 5.041 70.2538 5.043H67.8901C67.3338 5.043 66.8828 5.50881 66.8828 6.08343V7.83939ZM66.883 24.4975C66.883 25.0721 67.3339 25.5379 67.8903 25.5379L70.263 25.5323C70.8189 25.5312 71.2693 25.066 71.2703 24.4918V11.5804C71.2699 11.3029 71.1623 11.0372 70.9716 10.8419C70.7808 10.6466 70.5225 10.5379 70.2539 10.5399H67.8903C67.3339 10.5399 66.883 11.0058 66.883 11.5804V24.4975Z" fill="#1B1D1D"/>
<path fill-rule="evenodd" clip-rule="evenodd" d="M73.4531 29.5425C73.4531 30.1174 73.9038 30.5838 74.4604 30.5848L76.824 30.5923C77.3807 30.5913 77.8313 30.1249 77.8313 29.55V24.1563L77.8913 24.2258C78.2909 24.6757 78.7635 25.05 79.2877 25.332C80.0728 25.7132 80.9312 25.9058 81.7987 25.8954C82.7733 25.9168 83.7386 25.6959 84.6133 25.2512C85.3976 24.8354 86.0836 24.2461 86.6224 23.5253C87.1659 22.7874 87.571 21.9511 87.817 21.0594C88.0775 20.1267 88.2085 19.1605 88.2061 18.1898C88.2089 17.1696 88.078 16.1538 87.817 15.1699C87.5782 14.2399 87.169 13.3659 86.6115 12.5951C86.058 11.8524 85.3536 11.244 84.5478 10.8129C83.6272 10.3441 82.6103 10.1128 81.5841 10.1387C80.7223 10.1315 79.8698 10.324 79.0895 10.7021C78.5492 11.0036 78.0702 11.4097 77.6786 11.8984L77.6495 11.9359V11.581C77.6495 11.0064 77.1985 10.5406 76.6422 10.5406H74.4604C73.9045 10.5416 73.4541 11.0068 73.4531 11.581V29.5425ZM79.3161 14.0693C79.7524 13.8131 80.2491 13.6876 80.7506 13.7068C81.2439 13.6896 81.7319 13.8152 82.1597 14.0693C82.5446 14.3148 82.8704 14.6474 83.1125 15.0421C83.3735 15.4712 83.5582 15.945 83.6579 16.4412C83.7713 16.9812 83.8286 17.532 83.8289 18.0845C83.8294 18.637 83.7764 19.1881 83.6707 19.7297C83.5842 20.2149 83.4096 20.6788 83.1561 21.0969C82.9192 21.4811 82.5985 21.8027 82.2197 22.0359C80.8976 22.7439 79.2729 22.3443 78.4015 21.0969C78.1467 20.6765 77.9675 20.2121 77.8724 19.7259C77.7593 19.1866 77.7026 18.6363 77.7033 18.0845C77.7024 17.5222 77.7548 16.9611 77.8597 16.4093C77.9492 15.92 78.1242 15.4517 78.3761 15.0271C78.6142 14.6376 78.9358 14.3099 79.3161 14.0693Z" fill="#1B1D1D"/>
<path fill-rule="evenodd" clip-rule="evenodd" d="M89.2891 29.5424C89.2891 30.1174 89.7398 30.5837 90.2964 30.5848L92.6674 30.5923C93.224 30.5912 93.6747 30.1249 93.6747 29.55V24.1562L93.7347 24.2257C94.1338 24.6761 94.6064 25.0505 95.131 25.3319C95.9155 25.7131 96.7733 25.9057 97.6402 25.8953C98.6186 25.9156 99.5874 25.6914 100.464 25.2418C101.245 24.8253 101.928 24.236 102.464 23.5158C103.008 22.7784 103.413 21.9419 103.658 21.05C103.919 20.1173 104.05 19.1511 104.048 18.1803C104.05 17.1603 103.92 16.1446 103.66 15.1605C103.419 14.2335 103.009 13.3628 102.451 12.5951C101.899 11.8519 101.195 11.2435 100.389 10.8128C99.4685 10.3445 98.4517 10.1132 97.4256 10.1386C96.5632 10.1314 95.7102 10.324 94.9292 10.702C94.3877 11.0033 93.9075 11.4095 93.5147 11.8983L93.4856 11.9359V11.5809C93.4846 11.0067 93.0342 10.5415 92.4783 10.5405H90.2964C89.7401 10.5405 89.2891 11.0063 89.2891 11.5809V29.5424ZM95.1502 14.0692C95.5872 13.8131 96.0845 13.6876 96.5866 13.7068C97.0817 13.6869 97.5724 13.8105 98.003 14.0636C98.3848 14.3123 98.7073 14.6468 98.9466 15.0421C99.2077 15.4712 99.3924 15.945 99.4921 16.4412C99.6049 16.9812 99.6616 17.5321 99.6612 18.0845C99.6614 18.6368 99.609 19.1879 99.5048 19.7296C99.4178 20.2149 99.2425 20.6788 98.9885 21.0968C98.169 22.4132 96.4877 22.8232 95.1848 22.0246C94.802 21.7977 94.4772 21.4796 94.2375 21.0968C93.9827 20.6765 93.8034 20.212 93.7084 19.7259C93.5946 19.1867 93.5373 18.6364 93.5375 18.0845C93.5362 17.522 93.5892 16.9609 93.6956 16.4093C93.784 15.9197 93.9591 15.4511 94.212 15.027C94.4492 14.6375 94.7703 14.3097 95.1502 14.0692Z" fill="#1B1D1D"/>
<path fill-rule="evenodd" clip-rule="evenodd" d="M109.415 25.3474C110.398 25.7232 111.439 25.9079 112.486 25.892C113.538 25.9072 114.583 25.7226 115.57 25.3474C116.463 24.9992 117.274 24.4567 117.946 23.7567C118.616 23.0472 119.133 22.2008 119.466 21.272C119.831 20.2394 120.011 19.1467 119.997 18.0474C120.012 16.9436 119.833 15.8462 119.47 14.8078C118.815 12.9192 117.391 11.4225 115.574 10.7137C113.586 9.96003 111.403 9.96003 109.415 10.7137C107.604 11.4298 106.186 12.9263 105.532 14.8116C105.167 15.8496 104.987 16.9471 105.001 18.0512C104.986 19.1505 105.166 20.2432 105.532 21.2758C105.865 22.2046 106.383 23.051 107.052 23.7604C107.721 24.4574 108.527 24.9985 109.415 25.3474ZM110.061 15.0124C110.575 14.1468 111.507 13.642 112.488 13.6978V13.7034C113.009 13.6839 113.525 13.809 113.983 14.0659C114.373 14.2993 114.702 14.6258 114.945 15.0181C115.197 15.4437 115.372 15.9134 115.461 16.4041C115.565 16.9465 115.618 17.4981 115.617 18.0511C115.618 18.5991 115.566 19.1458 115.461 19.6831C115.369 20.173 115.193 20.6421 114.943 21.0691C114.705 21.46 114.377 21.783 113.986 22.0081C113.525 22.2586 113.009 22.3804 112.488 22.3612C111.973 22.381 111.462 22.2599 111.006 22.01C110.62 21.779 110.295 21.4525 110.061 21.0597C109.811 20.6327 109.635 20.1635 109.543 19.6737C109.438 19.1365 109.386 18.5897 109.386 18.0417C109.386 17.4887 109.439 16.9371 109.543 16.3947C109.631 15.9048 109.807 15.4362 110.061 15.0124Z" fill="#1B1D1D"/>
<path fill-rule="evenodd" clip-rule="evenodd" d="M29.8177 6.82606C30.6828 7.52153 31.3571 8.43817 31.7741 9.48535C32.1559 10.4203 32.3203 11.4346 32.2541 12.447C32.1851 13.4082 31.8878 14.337 31.3886 15.1514C30.8591 16.0003 30.1354 16.7014 29.2813 17.1928C28.802 17.4474 28.3091 17.6737 27.8049 17.8708C27.3358 18.0736 26.8795 18.299 26.4267 18.5375C25.3776 19.084 24.3722 19.6943 23.3776 20.3291C22.2921 21.0221 21.2267 21.7433 20.1721 22.4945C19.403 23.0372 16.7775 26.9924 15.4702 29.0056C21.4481 28.7466 26.5067 24.3599 27.7886 18.3234L27.9595 18.2483C28.0514 18.2072 28.1444 18.1682 28.24 18.1281C28.271 18.1151 28.3024 18.102 28.334 18.0886C28.7256 17.9347 29.107 17.7547 29.4759 17.5496C29.5595 17.5008 29.6377 17.4501 29.7177 17.3975C28.8157 24.568 23.2085 30.1265 16.2353 30.763C9.26213 31.3995 2.79811 26.9429 0.69255 20.047C-1.41302 13.1511 1.40611 5.67045 7.47118 2.05965C13.5362 -1.55115 21.2162 -0.321024 25.9376 5.01751H25.7558C25.36 5.01751 24.9648 5.05016 24.574 5.11517C24.293 5.16017 24.0149 5.22289 23.7412 5.30297C19.9126 1.74251 14.4259 0.814112 9.69752 2.92668C4.96916 5.03925 1.867 9.80503 1.7573 15.1251C3.31732 14.6143 6.02645 13.6903 6.341 13.356C7.01192 12.6423 7.68284 11.923 8.31194 11.1718C8.50499 10.9533 8.68301 10.7211 8.84467 10.477C8.89423 10.396 8.93508 10.3098 8.96649 10.2197C9.06516 9.95367 9.20451 9.70575 9.37922 9.48535C9.29078 9.26371 9.21965 9.03511 9.1665 8.80175C9.08238 8.63017 9.02121 8.44758 8.98467 8.259C8.87267 7.7786 8.83281 7.28328 8.86649 6.79038C8.89558 6.39035 9.01377 5.77624 9.51741 5.77624C9.68517 5.80235 9.84291 5.87505 9.97378 5.98658C10.4849 6.3311 10.958 6.73225 11.3847 7.18289H11.432L13.0429 6.99508C13.7097 6.89383 14.3842 6.85799 15.0575 6.88803C15.3514 6.91644 15.6411 6.97945 15.9211 7.07584C16.2121 7.17349 16.5066 7.25613 16.8048 7.32374C17.3724 7.45379 17.9525 7.51679 18.5339 7.51154C19.6508 7.48858 20.7426 7.16491 21.7012 6.57252C21.828 6.51573 21.9549 6.45802 22.0818 6.40026C22.2697 6.31477 22.4579 6.22915 22.6467 6.14621C23.2856 5.85089 23.9573 5.63831 24.6467 5.51331C25.3119 5.40142 25.9894 5.39066 26.6577 5.48139C27.8067 5.63671 28.8962 6.10033 29.8177 6.82606ZM15.5971 11.4834C16.0712 11.783 16.673 11.7601 17.1244 11.4252C17.5535 11.0814 17.7157 10.489 17.5244 9.96407C17.3239 9.42265 16.8255 9.06091 16.2644 9.04947C15.7554 9.03719 15.2885 9.33139 15.0644 9.79823C15.0882 9.72759 15.098 9.69957 15.0979 9.69956C15.0978 9.69953 15.0696 9.77956 15.0329 9.86888C15.0428 9.84492 15.0533 9.82136 15.0644 9.79823C15.0555 9.82472 15.0447 9.85721 15.0316 9.89646C14.9263 10.2137 14.9718 10.0889 15.0285 9.93312L15.0316 9.92463C15.0112 9.9814 14.9954 10.0398 14.9844 10.0993C14.8945 10.6468 15.1374 11.1955 15.5971 11.4834Z" fill="#1B1D1D"/>
</svg>
